# xmcd
#
# Track frame offsets:
#	150
#	12861
#	24262
#	39343
#	55588
#	78685
#	92765
#	104983
#	115909
#	139192
#	151040
#	168954
#	184527
#	201219
#
# Disc length: 3147 seconds
#
# Revision: 0
# Processed by: cddbd v1.4PL0 Copyright (c) Steve Scherf et al.
# Submitted via: dBpowerAMP V4.0
#
DISCID=ab0c490e
DTITLE=Blues 'n' Trouble - No Minor Keys
DYEAR=1900
DGENRE=Blues
TTITLE0=Fine Fine Fine
TTITLE1=All My love In vain
TTITLE2=Clock On The Wall
TTITLE3=Honey Pot
TTITLE4=Tight 'n' Juicy 
TTITLE5=Free To Ride
TTITLE6=You Can Run
TTITLE7=Madison Blues
TTITLE8=Double Trouble
TTITLE9=Beautiful City
TTITLE10=Let It Rock
TTITLE11=Slow Down
TTITLE12=Cadillac
TTITLE13=Double Trouble ( Original LP version )
EXTD=
EXTT0=
EXTT1=
EXTT2=
EXTT3=
EXTT4=
EXTT5=
EXTT6=
EXTT7=
EXTT8=
EXTT9=
EXTT10=
EXTT11=
EXTT12=
EXTT13=
PLAYORDER=
